Coordinates
version=1
nRows=13
nColumns=36
inDegrees=yes

Units are S.I. units (second, meters, Newtons, ...)
If the header above contains a line with 'inDegrees', this indicates whether rotational values are in degrees (yes) or radians (no).

endheader
time	pelvis_tilt	pelvis_list	pelvis_rotation	pelvis_tx	pelvis_ty	pelvis_tz	hip_flexion_r	hip_adduction_r	hip_rotation_r	knee_angle_r	knee_angle_r_beta	ankle_angle_r	subtalar_angle_r	mtp_angle_r	hip_flexion_l	hip_adduction_l	hip_rotation_l	knee_angle_l	knee_angle_l_beta	ankle_angle_l	subtalar_angle_l	mtp_angle_l	lumbar_extension	lumbar_bending	lumbar_rotation	arm_flex_r	arm_add_r	arm_rot_r	elbow_flex_r	pro_sup_r	arm_flex_l	arm_add_l	arm_rot_l	elbow_flex_l	pro_sup_l
      3.36666670	    -11.64480824	     -2.61755883	      3.71806749	      0.41778098	      1.17612027	     -0.08784685	      9.83375198	     -2.45830148	    -19.40897327	      3.05825280	      0.05337658	    -37.18416758	      0.23919789	     -7.49999987	     12.02321427	     -5.21253681	     -1.87438415	      1.38475549	      0.02416854	    -32.63018393	      3.02867460	     -7.49999987	      1.12116646	      0.90027669	      0.02184114	     41.48866843	    -58.63227321	      3.45720573	    121.73954996	     87.26189033	     50.99499860	    -61.60238420	     24.80161792	    130.27570629	     83.30048919
      3.37083330	    -11.50654968	     -2.55748562	      3.56119993	      0.41974480	      1.18814980	     -0.08978280	      9.83578633	     -2.48481683	    -19.66207473	      3.62720713	      0.06330671	    -38.01655701	     -0.36995246	     -7.49999987	     11.65721455	     -4.86086345	     -2.13235202	      1.76842575	      0.03086485	    -33.90207046	      3.28191719	     -7.49999987	      0.98047812	      1.02769677	     -0.24774897	     39.76434052	    -56.56371883	      3.56385491	    120.58318645	     89.31580311	     45.89317099	    -60.56670242	     22.42499598	    129.69631582	     85.30959128
      3.37500000	    -11.29509481	     -2.47798001	      3.46345008	      0.42285440	      1.19344292	     -0.08959976	      9.68114728	     -2.56427749	    -19.95101461	      4.26148017	      0.07437686	    -38.67790328	     -1.19673414	     -7.49999987	     11.20820260	     -4.52546630	     -2.02471959	      2.22733997	      0.03887442	    -34.90587050	      3.24059059	     -7.49999987	      0.79440192	      1.06769421	     -0.32330802	     37.73065615	    -55.00158164	      3.08826601	    119.77892495	     89.11504719	     42.32726188	    -59.69884947	     20.92635837	    129.06376841	     85.09406966
      3.37916670	    -11.25305592	     -2.37461481	      3.27674347	      0.42410700	      1.19942524	     -0.08636587	      9.70855881	     -2.53868216	    -20.01329992	      4.89789606	      0.08548441	    -39.27617989	     -2.41040009	     -7.49999987	     10.92806906	     -4.32637797	     -1.75677885	      2.72750553	      0.04760395	    -35.47950460	      3.23182298	     -7.49999987	      0.89144109	      1.04061548	     -0.04733426	     35.99340349	    -53.89590235	      2.88824663	    118.62445350	     89.00794550	     39.83625080	    -58.95519993	     20.66469551	    127.82135875	     84.98404583
      3.38333330	    -11.24531121	     -2.29985583	      3.31678768	      0.42616158	      1.21133036	     -0.08787028	      9.66111965	     -2.66418040	    -20.04970785	      5.41788473	      0.09455993	    -39.44694162	     -2.92665048	     -7.49999987	     10.74032262	     -4.11360490	     -1.56283118	      3.30303565	      0.05764885	    -35.79797450	      3.15224778	     -7.49999987	      0.78473544	      1.10968341	     -0.11289079	     33.39272796	    -52.41989068	      1.66018672	    118.12203139	     85.58380679	     35.96908469	    -57.90032639	     18.48194278	    127.52167146	     81.60073494
      3.38750000	    -11.45371314	     -2.28042742	      3.46970756	      0.42917963	      1.22120843	     -0.08737953	      9.75613803	     -2.65311699	    -19.84525810	      5.82002638	      0.10157862	    -39.83059087	     -3.99375917	     -7.49999987	     10.74687034	     -3.96725040	     -1.20505493	      3.63889186	      0.06351064	    -36.18525424	      2.73366659	     -7.49999987	      1.03051677	      1.37046998	     -1.11061156	     32.32999187	    -50.32006970	      2.42467806	    117.04996961	     88.96072298	     29.53950422	    -57.25292138	     13.57659523	    127.53048738	     83.92693346
      3.39166670	    -11.46144703	     -2.30523813	      3.60812098	      0.42998854	      1.23052633	     -0.08603455	      9.55580698	     -2.52803900	    -20.05151480	      5.81780497	      0.10153985	    -39.84869429	     -4.62578923	     -7.49999987	     10.58942302	     -3.95512037	     -0.67458467	      3.83871363	      0.06699819	    -36.57817415	      2.46701973	     -7.49999987	      1.38632621	      1.53342209	     -0.99695880	     30.02258926	    -48.82270253	      2.30162016	    115.85674435	     88.68684881	     27.23750156	    -55.41963276	     13.63566071	    126.08471676	     83.71566799
      3.39583330	    -11.47245581	     -2.41064790	      3.70965712	      0.43121620	      1.23486107	     -0.08801536	      9.43749329	     -2.24781871	    -20.12192153	      5.97006579	      0.10419730	    -39.91834462	     -5.40479613	     -7.49999987	     10.43501404	     -3.97744018	     -0.45387847	      3.95485079	      0.06902517	    -36.83113498	      1.80159378	     -7.49999987	      1.67639553	      1.76815544	     -0.90821666	     27.97449943	    -47.64808135	      2.02790506	    114.37222516	     88.48198781	     25.27824570	    -53.55223397	     13.79947593	    125.07377053	     83.54975050
      3.40000000	    -11.35749150	     -2.56981304	      3.86675586	      0.43246870	      1.24374585	     -0.08681943	      9.27815163	     -1.94707110	    -20.44464750	      6.13266495	      0.10703520	    -40.18756849	     -6.64121296	     -7.49999987	     10.18118035	     -4.06389939	     -0.19700845	      4.02449177	      0.07024063	    -37.13755715	      1.10699531	     -7.49999987	      1.72011046	      1.86742570	     -0.92569797	     26.15897921	    -46.12153540	      1.87036406	    112.25831920	     88.26089858	     24.00758096	    -51.76423058	     13.99433318	    123.50498270	     83.34138381
      3.40416670	    -11.25095023	     -2.68533571	      3.85075792	      0.43123174	      1.25284372	     -0.09227944	      9.30698737	     -1.84881472	    -20.39349412	      6.36957464	      0.11117005	    -40.24468973	     -7.50542683	     -7.49999987	     10.05319989	     -3.98501328	     -0.02915652	      4.13457675	      0.07216198	    -37.58736292	      0.00394979	     -7.49999987	      1.79581195	      2.19532834	     -0.79932883	     24.95950960	    -44.81610799	      2.14126784	    109.93419743	     88.10764780	     23.18359881	    -49.55811867	     14.54741459	    121.53513408	     83.14253787
      3.40833330	    -11.17156511	     -2.69056779	      3.77659164	      0.43208961	      1.26343980	     -0.08849515	      9.29944232	     -1.67024816	    -20.64082321	      6.46222571	      0.11278712	    -40.33530853	     -8.31004903	     -7.49999987	      9.94213572	     -3.90144111	      0.11044695	      4.21360219	      0.07354123	    -38.26622505	     -0.89027204	     -7.49999987	      2.00232301	      2.12985261	      0.04117930	     22.64148844	    -43.77018860	      1.77534570	    107.65089738	     87.20426200	     24.66960983	    -47.26977443	     18.28751670	    118.07527884	     81.23590040
      3.41250000	    -11.06876438	     -2.65059674	      3.71416981	      0.43417329	      1.27268148	     -0.08875718	      9.15249835	     -1.55995561	    -20.87370047	      6.29873333	      0.10993364	    -40.27508744	     -8.47178613	     -7.49999987	      9.67603629	     -3.80907977	     -0.14050291	      4.13449733	      0.07216059	    -38.54225086	     -1.60070548	     -7.49999987	      1.84658424	      2.12264116	      0.05176889	     21.35210040	    -42.20865873	      1.98334267	    105.58186653	     87.17408150	     23.66993746	    -45.46566627	     18.45504670	    115.91414289	     81.13371553
      3.41666670	    -10.98670070	     -2.66684936	      3.62994295	      0.43203782	      1.28266584	     -0.08961497	      9.21859779	     -1.38851793	    -21.14767097	      6.06802474	      0.10590701	    -40.45893033	     -8.84737631	     -7.49999987	      9.64872865	     -3.73687885	     -0.09566697	      4.06358737	      0.07092298	    -39.31280276	     -2.39136699	     -7.49999987	      1.78798307	      2.16247177	      0.08406430	     20.59621911	    -40.59461546	      2.92086032	    102.77573263	     87.31839716	     23.33471273	    -43.60671267	     19.50759692	    112.74208869	     80.94968468
